<svg width="103" height="103" viewBox="0 0 103 103" fill="none" xmlns="http://www.w3.org/2000/svg">
<circle cx="51.2509" cy="51.2509" r="51.2509" fill="#E1BCF7"/>
<path d="M18.2373 52.6352C18.2373 48.0202 18.974 43.7248 20.4475 39.7492C21.921 35.7736 24.1312 32.3401 27.0782 29.4487C30.053 26.5296 33.7506 24.2499 38.171 22.6096C42.5914 20.9415 47.7486 20.1074 53.6426 20.1074C57.924 20.1074 61.8996 20.7608 65.5694 22.0674C69.2392 23.3741 72.631 25.487 75.7448 28.4062L80.8741 20.733H83.7516V47.7977H80.4988C79.498 43.3773 78.1357 39.7075 76.412 36.7883C74.7161 33.8692 72.8395 31.5478 70.7822 29.8241C68.7527 28.0726 66.6259 26.8493 64.4017 26.1543C62.2054 25.4314 60.1203 25.07 58.1464 25.07C57.2011 25.07 56.2559 25.1534 55.3106 25.3202C54.3932 25.4592 53.5035 25.8067 52.6417 26.3628C51.7799 26.891 50.9736 27.6694 50.223 28.6981C49.4723 29.7268 48.819 31.1307 48.263 32.91C47.7347 34.6615 47.3038 36.83 46.9702 39.4156C46.6644 42.0011 46.5115 45.1149 46.5115 48.7569C46.5115 52.5657 46.6227 55.9158 46.8451 58.8072C47.0953 61.6985 47.4567 64.2007 47.9293 66.3136C48.4298 68.4265 49.0275 70.178 49.7225 71.5681C50.4454 72.9581 51.2794 74.0702 52.2247 74.9042C53.1977 75.7383 54.282 76.336 55.4775 76.6974C56.6729 77.0311 57.9796 77.1979 59.3975 77.1979C62.1776 77.1979 64.7771 76.7808 67.1958 75.9468C69.6145 75.0849 71.7552 73.7366 73.618 71.9017C75.4807 70.0668 77.0097 67.7036 78.2052 64.8123C79.4285 61.9209 80.2208 58.4457 80.5822 54.3867H84.252C84.0296 58.3067 83.3207 61.9626 82.1252 65.3544C80.9576 68.7462 79.1644 71.7071 76.7456 74.237C74.3269 76.7669 71.2131 78.7548 67.4043 80.2004C63.5955 81.6461 58.9526 82.3689 53.4757 82.3689C48.1378 82.3689 43.3004 81.6461 38.9633 80.2004C34.6263 78.7548 30.9148 76.7252 27.8288 74.1119C24.7707 71.4708 22.4075 68.3292 20.7394 64.6872C19.0714 61.0452 18.2373 57.0279 18.2373 52.6352Z" fill="#380C15"/>
</svg>
